<svg xmlns="http://www.w3.org/2000/svg" width="320.92" height="35" viewBox="0 0 320.92 35"><rect class="svg__rect" x="0" y="0" width="115.31" height="35" fill="#31C4F3"/><rect class="svg__rect" x="113.31" y="0" width="207.61" height="35" fill="#389AD5"/><path class="svg__text" d="M15.69 22L14.22 22L14.22 13.47L16.14 13.47L18.60 20.01L21.06 13.47L22.97 13.47L22.97 22L21.49 22L21.49 19.19L21.64 15.43L19.12 22L18.06 22L15.55 15.43L15.69 19.19L15.69 22ZM28.49 22L26.95 22L30.17 13.47L31.50 13.47L34.73 22L33.18 22L32.49 20.01L29.18 20.01L28.49 22ZM30.83 15.28L29.60 18.82L32.07 18.82L30.83 15.28ZM41.14 22L38.69 22L38.69 13.47L41.21 13.47Q42.34 13.47 43.21 13.97Q44.09 14.48 44.57 15.40Q45.05 16.33 45.05 17.52L45.05 17.52L45.05 17.95Q45.05 19.16 44.57 20.08Q44.08 21.00 43.19 21.50Q42.30 22 41.14 22L41.14 22ZM40.17 14.66L40.17 20.82L41.14 20.82Q42.30 20.82 42.93 20.09Q43.55 19.36 43.56 17.99L43.56 17.99L43.56 17.52Q43.56 16.13 42.96 15.40Q42.35 14.66 41.21 14.66L41.21 14.66L40.17 14.66ZM55.09 22L49.51 22L49.51 13.47L55.05 13.47L55.05 14.66L51.00 14.66L51.00 17.02L54.50 17.02L54.50 18.19L51.00 18.19L51.00 20.82L55.09 20.82L55.09 22ZM66.65 22L64.68 13.47L66.15 13.47L67.47 19.88L69.10 13.47L70.34 13.47L71.96 19.89L73.27 13.47L74.74 13.47L72.77 22L71.35 22L69.73 15.77L68.07 22L66.65 22ZM80.38 22L78.90 22L78.90 13.47L80.38 13.47L80.38 22ZM86.87 14.66L84.23 14.66L84.23 13.47L91.00 13.47L91.00 14.66L88.34 14.66L88.34 22L86.87 22L86.87 14.66ZM96.24 22L94.75 22L94.75 13.47L96.24 13.47L96.24 17.02L100.05 17.02L100.05 13.47L101.53 13.47L101.53 22L100.05 22L100.05 18.21L96.24 18.21L96.24 22Z" fill="#FFFFFF"/><path class="svg__text" d="M127.07 17.80L127.07 17.80Q127.07 16.54 127.67 15.54Q128.27 14.55 129.32 13.99Q130.37 13.43 131.69 13.43L131.69 13.43Q132.84 13.43 133.76 13.84Q134.69 14.25 135.30 15.02L135.30 15.02L133.79 16.39Q132.98 15.40 131.81 15.40L131.81 15.40Q131.12 15.40 130.59 15.70Q130.06 16 129.76 16.54Q129.47 17.09 129.47 17.80L129.47 17.80Q129.47 18.51 129.76 19.05Q130.06 19.60 130.59 19.90Q131.12 20.20 131.81 20.20L131.81 20.20Q132.98 20.20 133.79 19.22L133.79 19.22L135.30 20.58Q134.69 21.35 133.77 21.76Q132.84 22.17 131.69 22.17L131.69 22.17Q130.37 22.17 129.32 21.61Q128.27 21.05 127.67 20.05Q127.07 19.06 127.07 17.80ZM142.22 22L139.84 22L139.84 13.60L143.68 13.60Q144.82 13.60 145.66 13.98Q146.50 14.35 146.96 15.06Q147.41 15.76 147.41 16.71L147.41 16.71Q147.41 17.62 146.99 18.30Q146.56 18.98 145.77 19.36L145.77 19.36L147.58 22L145.03 22L143.51 19.77L142.22 19.77L142.22 22ZM142.22 15.47L142.22 17.93L143.53 17.93Q144.27 17.93 144.64 17.61Q145.01 17.29 145.01 16.71L145.01 16.71Q145.01 16.12 144.64 15.79Q144.27 15.47 143.53 15.47L143.53 15.47L142.22 15.47ZM158.95 22L152.20 22L152.20 13.60L158.79 13.60L158.79 15.44L154.56 15.44L154.56 16.85L158.29 16.85L158.29 18.63L154.56 18.63L154.56 20.17L158.95 20.17L158.95 22ZM165.17 22L162.74 22L166.45 13.60L168.79 13.60L172.51 22L170.04 22L169.38 20.37L165.83 20.37L165.17 22ZM167.61 15.93L166.52 18.61L168.68 18.61L167.61 15.93ZM178.46 15.48L175.87 15.48L175.87 13.60L183.40 13.60L183.40 15.48L180.83 15.48L180.83 22L178.46 22L178.46 15.48ZM194.51 22L187.77 22L187.77 13.60L194.36 13.60L194.36 15.44L190.12 15.44L190.12 16.85L193.86 16.85L193.86 18.63L190.12 18.63L190.12 20.17L194.51 20.17L194.51 22ZM202.56 19.46L199.05 19.46L199.05 17.71L202.56 17.71L202.56 19.46ZM209.83 22L207.45 22L207.45 13.60L211.30 13.60Q212.44 13.60 213.28 13.98Q214.12 14.35 214.57 15.06Q215.03 15.76 215.03 16.71L215.03 16.71Q215.03 17.62 214.60 18.30Q214.18 18.98 213.38 19.36L213.38 19.36L215.20 22L212.65 22L211.13 19.77L209.83 19.77L209.83 22ZM209.83 15.47L209.83 17.93L211.15 17.93Q211.88 17.93 212.26 17.61Q212.63 17.29 212.63 16.71L212.63 16.71Q212.63 16.12 212.26 15.79Q211.88 15.47 211.15 15.47L211.15 15.47L209.83 15.47ZM226.56 22L219.82 22L219.82 13.60L226.41 13.60L226.41 15.44L222.17 15.44L222.17 16.85L225.91 16.85L225.91 18.63L222.17 18.63L222.17 20.17L226.56 20.17L226.56 22ZM232.78 22L230.36 22L234.07 13.60L236.41 13.60L240.13 22L237.66 22L237.00 20.37L233.45 20.37L232.78 22ZM235.22 15.93L234.14 18.61L236.30 18.61L235.22 15.93ZM243.85 17.80L243.85 17.80Q243.85 16.54 244.45 15.54Q245.05 14.55 246.10 13.99Q247.15 13.43 248.47 13.43L248.47 13.43Q249.62 13.43 250.55 13.84Q251.47 14.25 252.09 15.02L252.09 15.02L250.57 16.39Q249.76 15.40 248.59 15.40L248.59 15.40Q247.91 15.40 247.37 15.70Q246.84 16 246.55 16.54Q246.25 17.09 246.25 17.80L246.25 17.80Q246.25 18.51 246.55 19.05Q246.84 19.60 247.37 19.90Q247.91 20.20 248.59 20.20L248.59 20.20Q249.76 20.20 250.57 19.22L250.57 19.22L252.09 20.58Q251.48 21.35 250.55 21.76Q249.62 22.17 248.47 22.17L248.47 22.17Q247.15 22.17 246.10 21.61Q245.05 21.05 244.45 20.05Q243.85 19.06 243.85 17.80ZM258.41 15.48L255.83 15.48L255.83 13.60L263.35 13.60L263.35 15.48L260.79 15.48L260.79 22L258.41 22L258.41 15.48ZM270.96 19.46L267.46 19.46L267.46 17.71L270.96 17.71L270.96 19.46ZM277.28 22L274.86 22L278.56 13.60L280.91 13.60L284.62 22L282.16 22L281.49 20.37L277.94 20.37L277.28 22ZM279.72 15.93L278.63 18.61L280.80 18.61L279.72 15.93ZM291.16 22L288.78 22L288.78 13.60L292.62 13.60Q293.76 13.60 294.60 13.98Q295.44 14.35 295.90 15.06Q296.35 15.76 296.35 16.71L296.35 16.71Q296.35 17.66 295.90 18.35Q295.44 19.05 294.60 19.42Q293.76 19.80 292.62 19.80L292.62 19.80L291.16 19.80L291.16 22ZM291.16 15.47L291.16 17.93L292.47 17.93Q293.21 17.93 293.58 17.61Q293.95 17.29 293.95 16.71L293.95 16.71Q293.95 16.12 293.58 15.80Q293.21 15.47 292.47 15.47L292.47 15.47L291.16 15.47ZM303.48 22L301.11 22L301.11 13.60L304.95 13.60Q306.09 13.60 306.93 13.98Q307.77 14.35 308.22 15.06Q308.68 15.76 308.68 16.71L308.68 16.71Q308.68 17.66 308.22 18.35Q307.77 19.05 306.93 19.42Q306.09 19.80 304.95 19.80L304.95 19.80L303.48 19.80L303.48 22ZM303.48 15.47L303.48 17.93L304.80 17.93Q305.54 17.93 305.91 17.61Q306.28 17.29 306.28 16.71L306.28 16.71Q306.28 16.12 305.91 15.80Q305.54 15.47 304.80 15.47L304.80 15.47L303.48 15.47Z" fill="#FFFFFF" x="126.31"/></svg>
